<svg width="64" height="64" viewBox="0 0 64 64" fill="none" xmlns="http://www.w3.org/2000/svg">
<path d="M25.528 22.2V38.28C25.528 39.16 25.352 39.952 25 40.656C24.648 41.376 24.168 41.984 23.56 42.48C22.968 42.976 22.288 43.336 21.52 43.56C20.752 43.8 19.952 43.88 19.12 43.8V43.584C19.792 43.296 20.336 42.864 20.752 42.288C21.168 41.728 21.464 41.088 21.64 40.368C21.832 39.664 21.928 38.944 21.928 38.208V22.2H25.528ZM22 23.952H21.928C21.912 23.536 21.752 23.184 21.448 22.896C21.16 22.592 20.808 22.44 20.392 22.44C20.392 22.44 20.336 22.44 20.224 22.44C20.128 22.44 20.08 22.44 20.08 22.44V22.2H22V23.952ZM25.456 23.952V22.2H27.376V22.44C27.376 22.44 27.32 22.44 27.208 22.44C27.112 22.44 27.064 22.44 27.064 22.44C26.648 22.44 26.288 22.592 25.984 22.896C25.696 23.184 25.544 23.536 25.528 23.952H25.456ZM31.7451 22.2H35.8971C37.0651 22.2 38.1051 22.344 39.0171 22.632C39.9451 22.904 40.6731 23.344 41.2011 23.952C41.7291 24.544 41.9931 25.328 41.9931 26.304C41.9931 27.04 41.8491 27.664 41.5611 28.176C41.2891 28.688 40.9291 29.08 40.4811 29.352C40.0331 29.624 39.5611 29.792 39.0651 29.856C39.8651 29.92 40.5851 30.144 41.2251 30.528C41.8811 30.912 42.3931 31.424 42.7611 32.064C43.1291 32.704 43.3131 33.456 43.3131 34.32C43.3131 35.344 43.0331 36.208 42.4731 36.912C41.9131 37.6 41.1211 38.12 40.0971 38.472C39.0891 38.824 37.9131 39 36.5691 39H34.1931C34.1931 39 34.1931 38.912 34.1931 38.736C34.2091 38.544 34.2171 38.36 34.2171 38.184C34.2171 38.008 34.2171 37.92 34.2171 37.92H35.5131C36.2331 37.92 36.8651 37.784 37.4091 37.512C37.9691 37.24 38.4011 36.816 38.7051 36.24C39.0251 35.664 39.1851 34.928 39.1851 34.032C39.1851 33.328 39.0731 32.728 38.8491 32.232C38.6411 31.736 38.3531 31.336 37.9851 31.032C37.6331 30.712 37.2171 30.48 36.7371 30.336C36.2571 30.192 35.7531 30.12 35.2251 30.12V29.904C35.5931 29.904 35.9531 29.848 36.3051 29.736C36.6571 29.608 36.9691 29.416 37.2411 29.16C37.5291 28.904 37.7531 28.568 37.9131 28.152C38.0731 27.72 38.1531 27.208 38.1531 26.616C38.1531 25.8 38.0251 25.144 37.7691 24.648C37.5291 24.152 37.1771 23.792 36.7131 23.568C36.2491 23.344 35.7131 23.232 35.1051 23.232H31.9851C31.9851 23.216 31.9611 23.128 31.9131 22.968C31.8811 22.792 31.8411 22.624 31.7931 22.464C31.7611 22.288 31.7451 22.2 31.7451 22.2ZM34.4091 22.2V39H30.8091V22.2H34.4091ZM30.8811 37.248V39H28.9611V38.76C28.9931 38.76 29.0491 38.76 29.1291 38.76C29.2091 38.76 29.2571 38.76 29.2731 38.76C29.6891 38.76 30.0411 38.616 30.3291 38.328C30.6331 38.024 30.7931 37.664 30.8091 37.248H30.8811ZM30.8811 23.952H30.8091C30.7931 23.536 30.6331 23.184 30.3291 22.896C30.0411 22.592 29.6891 22.44 29.2731 22.44C29.2571 22.44 29.2091 22.44 29.1291 22.44C29.0491 22.44 28.9931 22.44 28.9611 22.44V22.2H30.8811V23.952Z" fill="black"/>
<rect x="9.5" y="6.5" width="45" height="51" stroke="black"/>
</svg>
