<svg width="46" height="52" viewBox="0 0 46 52" fill="none" xmlns="http://www.w3.org/2000/svg">
<path d="M16.528 16.2V32.28C16.528 33.16 16.352 33.952 16 34.656C15.648 35.376 15.168 35.984 14.56 36.48C13.968 36.976 13.288 37.336 12.52 37.56C11.752 37.8 10.952 37.88 10.12 37.8V37.584C10.792 37.296 11.336 36.864 11.752 36.288C12.168 35.728 12.464 35.088 12.64 34.368C12.832 33.664 12.928 32.944 12.928 32.208V16.2H16.528ZM13 17.952H12.928C12.912 17.536 12.752 17.184 12.448 16.896C12.16 16.592 11.808 16.44 11.392 16.44C11.392 16.44 11.336 16.44 11.224 16.44C11.128 16.44 11.08 16.44 11.08 16.44V16.2H13V17.952ZM16.456 17.952V16.2H18.376V16.44C18.376 16.44 18.32 16.44 18.208 16.44C18.112 16.44 18.064 16.44 18.064 16.44C17.648 16.44 17.288 16.592 16.984 16.896C16.696 17.184 16.544 17.536 16.528 17.952H16.456ZM22.7451 16.2H26.8971C28.0651 16.2 29.1051 16.344 30.0171 16.632C30.9451 16.904 31.6731 17.344 32.2011 17.952C32.7291 18.544 32.9931 19.328 32.9931 20.304C32.9931 21.04 32.8491 21.664 32.5611 22.176C32.2891 22.688 31.9291 23.08 31.4811 23.352C31.0331 23.624 30.5611 23.792 30.0651 23.856C30.8651 23.92 31.5851 24.144 32.2251 24.528C32.8811 24.912 33.3931 25.424 33.7611 26.064C34.1291 26.704 34.3131 27.456 34.3131 28.32C34.3131 29.344 34.0331 30.208 33.4731 30.912C32.9131 31.6 32.1211 32.12 31.0971 32.472C30.0891 32.824 28.9131 33 27.5691 33H25.1931C25.1931 33 25.1931 32.912 25.1931 32.736C25.2091 32.544 25.2171 32.36 25.2171 32.184C25.2171 32.008 25.2171 31.92 25.2171 31.92H26.5131C27.2331 31.92 27.8651 31.784 28.4091 31.512C28.9691 31.24 29.4011 30.816 29.7051 30.24C30.0251 29.664 30.1851 28.928 30.1851 28.032C30.1851 27.328 30.0731 26.728 29.8491 26.232C29.6411 25.736 29.3531 25.336 28.9851 25.032C28.6331 24.712 28.2171 24.48 27.7371 24.336C27.2571 24.192 26.7531 24.12 26.2251 24.12V23.904C26.5931 23.904 26.9531 23.848 27.3051 23.736C27.6571 23.608 27.9691 23.416 28.2411 23.16C28.5291 22.904 28.7531 22.568 28.9131 22.152C29.0731 21.72 29.1531 21.208 29.1531 20.616C29.1531 19.8 29.0251 19.144 28.7691 18.648C28.5291 18.152 28.1771 17.792 27.7131 17.568C27.2491 17.344 26.7131 17.232 26.1051 17.232H22.9851C22.9851 17.216 22.9611 17.128 22.9131 16.968C22.8811 16.792 22.8411 16.624 22.7931 16.464C22.7611 16.288 22.7451 16.2 22.7451 16.2ZM25.4091 16.2V33H21.8091V16.2H25.4091ZM21.8811 31.248V33H19.9611V32.76C19.9931 32.76 20.0491 32.76 20.1291 32.76C20.2091 32.76 20.2571 32.76 20.2731 32.76C20.6891 32.76 21.0411 32.616 21.3291 32.328C21.6331 32.024 21.7931 31.664 21.8091 31.248H21.8811ZM21.8811 17.952H21.8091C21.7931 17.536 21.6331 17.184 21.3291 16.896C21.0411 16.592 20.6891 16.44 20.2731 16.44C20.2571 16.44 20.2091 16.44 20.1291 16.44C20.0491 16.44 19.9931 16.44 19.9611 16.44V16.2H21.8811V17.952Z" fill="#DADADA"/>
<rect x="0.5" y="0.5" width="45" height="51" stroke="#DADADA"/>
</svg>
